<svg xmlns="http://www.w3.org/2000/svg" viewBox="0 0 96 96" width="96" height="96">
  <defs>
    <linearGradient id="hornets-bg" x1="0%" y1="0%" x2="100%" y2="100%">
      <stop offset="0%" stop-color="#0a2e33"/>
      <stop offset="100%" stop-color="#061a1d"/>
    </linearGradient>
    <linearGradient id="hornets-teal" x1="0%" y1="0%" x2="100%" y2="100%">
      <stop offset="0%" stop-color="#00788C"/>
      <stop offset="100%" stop-color="#005f6e"/>
    </linearGradient>
  </defs>

  <!-- Background rounded rect -->
  <rect width="96" height="96" rx="20" fill="url(#hornets-bg)"/>

  <!-- Trophy silhouette -->
  <!-- Cup body -->
  <path d="M30 24 L66 24 L62 52 Q48 62 34 52 Z" fill="url(#hornets-teal)" opacity="0.9"/>

  <!-- Left handle -->
  <path d="M30 28 Q18 28 18 38 Q18 48 30 48" fill="none" stroke="#00788C" stroke-width="3" stroke-linecap="round" opacity="0.7"/>

  <!-- Right handle -->
  <path d="M66 28 Q78 28 78 38 Q78 48 66 48" fill="none" stroke="#00788C" stroke-width="3" stroke-linecap="round" opacity="0.7"/>

  <!-- Stem -->
  <rect x="44.5" y="54" width="7" height="12" rx="3" fill="url(#hornets-teal)" opacity="0.9"/>

  <!-- Base -->
  <rect x="35" y="64" width="26" height="6" rx="3" fill="url(#hornets-teal)" opacity="0.85"/>

  <!-- Star on cup -->
  <polygon points="48,32 50,38 56,38 51,42 53,48 48,44 43,48 45,42 40,38 46,38" fill="#00788C" opacity="0.25"/>

  <!-- Subtle teal glow ring -->
  <rect width="96" height="96" rx="20" fill="none" stroke="#00788C" stroke-width="1.5" opacity="0.2"/>
</svg>
